<?xml version="1.0" encoding="UTF-8"?>
<svg id="Layer_1" xmlns="http://www.w3.org/2000/svg" version="1.1" viewBox="0 0 150 145">
  <!-- Generator: Adobe Illustrator 29.5.1, SVG Export Plug-In . SVG Version: 2.1.0 Build 141)  -->
  <defs>
    <style>
      .st0 {
        fill: #ba0000;
      }

      .st1 {
        fill: #1a842c;
      }

      .st2 {
        display: none;
      }
    </style>
  </defs>
  <g id="Like" class="st2">
    <path class="st1" d="M144.8,68.5v-2.3c0-8.3-6.8-15.1-15.1-15.1h-38c3.6-5.5,6.8-12.5,8.8-19.4,1.6-5.6,3.8-16,.5-23.3-2.1-4.5-5.9-7-11.1-7.3-8.3-.3-15.5,6-16.4,14.4-1.8,17.6-11.6,30-30.8,39.1-1.3-2.6-3.9-4.4-7-4.4H9.4c-4.3,0-7.8,3.5-7.8,7.8v74.3c0,4.3,3.5,7.8,7.8,7.8h26.3c3.8,0,7.1-2.8,7.7-6.5l1,.6c4.6,3,9.9,4.5,15.3,4.5h64.9c6.9,0,12.5-5.6,12.5-12.5v-1.4c0-1.9-.7-3.6-1.8-5,2.9-1.7,4.8-4.8,4.8-8.4v-5.2c0-2.9-1.1-5.6-2.9-7.6,3.5-1.3,5.9-4.6,5.9-8.6v-6.4c0-2.8-1.1-5.4-2.9-7.3,2.8-1.5,4.7-4.4,4.7-7.8ZM39,132.1c0,1.8-1.5,3.3-3.3,3.3H9.4c-1.8,0-3.3-1.5-3.3-3.3V57.9c0-1.8,1.5-3.3,3.3-3.3h26.3c1.8,0,3.3,1.5,3.3,3.3v74.3ZM140.4,68.5c0,2.4-2,4.4-4.4,4.4h-14.3c-1.1,0-2,.7-2.2,1.8h0c-.1.7,0,1.4.5,1.9.4.5,1.1.8,1.7.8h10.6c3.5,0,6.3,2.8,6.3,6.3v6.4c0,2.6-2.1,4.7-4.7,4.7h-16.6c-1.1,0-2,.7-2.2,1.8h0c-.1.8,0,1.4.5,2,.4.5,1.1.8,1.7.8h11.5c3.8,0,6.9,3.1,6.9,6.9v5.2c0,2.9-2.4,5.3-5.3,5.3h-17.5c-1.1,0-2,.7-2.2,1.8h0c-.1.8,0,1.4.5,2,.4.5,1.1.8,1.7.8h16.3c1.9,0,3.5,1.6,3.5,3.5v1.4c0,4.4-3.6,8-8,8H59.6c-4.6,0-9.1-1.3-12.9-3.8l-3.3-2.1V59c9.8-4.4,17.2-9.6,22.8-15.8,3.3-3.6,5.9-7.7,7.8-12.1,2-4.6,3.4-9.8,3.9-15.3.6-6.1,5.8-10.6,11.8-10.4,3.5.1,5.9,1.7,7.2,4.7,2,4.4,1.7,11.7-.7,20.2-2.3,8.1-6.3,16.1-10.6,21.5-.5.7-.6,1.6-.3,2.4.4.8,1.2,1.3,2,1.3h42.3c5.9,0,10.7,4.8,10.7,10.7v2.3Z"/>
    <circle class="st1" cx="22.5" cy="121.3" r="4.8"/>
  </g>
  <g id="Like1" data-name="Like">
    <path class="st0" d="M1.6,72.4v2.3c0,8.3,6.8,15.1,15.1,15.1h38c-3.6,5.5-6.8,12.5-8.8,19.4-1.6,5.6-3.8,16-.5,23.3,2.1,4.5,5.9,7,11.1,7.3,8.3.3,15.5-6,16.4-14.4,1.8-17.6,11.6-30,30.8-39.1,1.3,2.6,3.9,4.4,7,4.4h26.3c4.3,0,7.8-3.5,7.8-7.8V8.8c0-4.3-3.5-7.8-7.8-7.8h-26.3c-3.8,0-7.1,2.8-7.7,6.5l-1-.6c-4.6-3-9.9-4.5-15.3-4.5H21.9c-6.9,0-12.5,5.6-12.5,12.5v1.4c0,1.9.7,3.6,1.8,5-2.9,1.7-4.8,4.8-4.8,8.4v5.2c0,2.9,1.1,5.6,2.9,7.6-3.5,1.3-5.9,4.6-5.9,8.6v6.4c0,2.8,1.1,5.4,2.9,7.3-2.8,1.5-4.7,4.4-4.7,7.8ZM107.4,8.8c0-1.8,1.5-3.3,3.3-3.3h26.3c1.8,0,3.3,1.5,3.3,3.3v74.3c0,1.8-1.5,3.3-3.3,3.3h-26.3c-1.8,0-3.3-1.5-3.3-3.3V8.8ZM6,72.4c0-2.4,2-4.4,4.4-4.4h14.3c1.1,0,2-.7,2.2-1.8h0c.1-.7,0-1.4-.5-1.9-.4-.5-1.1-.8-1.7-.8h-10.6c-3.5,0-6.3-2.8-6.3-6.3v-6.4c0-2.6,2.1-4.7,4.7-4.7h16.6c1.1,0,2-.7,2.2-1.8h0c.1-.8,0-1.4-.5-2-.4-.5-1.1-.8-1.7-.8h-11.5c-3.8,0-6.9-3.1-6.9-6.9v-5.2c0-2.9,2.4-5.3,5.3-5.3h17.5c1.1,0,2-.7,2.2-1.8h0c.1-.8,0-1.4-.5-2-.4-.5-1.1-.8-1.7-.8h-16.3c-1.9,0-3.5-1.6-3.5-3.5v-1.4c0-4.4,3.6-8,8-8h64.9c4.6,0,9.1,1.3,12.9,3.8l3.3,2.1v69.2c-9.8,4.4-17.2,9.6-22.8,15.8-3.3,3.6-5.9,7.7-7.8,12.1-2,4.6-3.4,9.8-3.9,15.3-.6,6.1-5.8,10.6-11.8,10.4-3.5-.1-5.9-1.7-7.2-4.7-2-4.4-1.7-11.7.7-20.2,2.3-8.1,6.3-16.1,10.6-21.5.5-.7.6-1.6.3-2.4-.4-.8-1.2-1.3-2-1.3H16.7c-5.9,0-10.7-4.8-10.7-10.7v-2.3Z"/>
    <circle class="st0" cx="123.9" cy="19.6" r="4.8"/>
  </g>
</svg>